<svg xmlns="http://www.w3.org/2000/svg" viewBox="0 0 140.02 34.15"><title>Logo-Transmute-Drk</title><polygon points="6.77 17.08 17.08 27.38 17.08 17.07 6.77 17.08" style="fill:#27225b"/><polygon points="6.77 17.08 0 10.3 0 0 30.91 0 37.68 6.77 6.77 6.77 6.77 17.08" style="fill:#27225b"/><polygon points="37.68 6.77 44.46 13.54 44.46 23.85 34.15 23.85 34.15 34.15 23.85 34.15 17.08 27.38 27.38 27.38 27.38 17.07 37.68 17.07 37.68 6.77" style="fill:#27225b"/><path d="M54.8,16.56H52V15.14H59.1v1.42H56.34v7.29H54.8Z" style="fill:#27225b"/><path d="M66.76,20.55a2.62,2.62,0,0,0,2.08-2.64v0A2.59,2.59,0,0,0,68.11,16a3.48,3.48,0,0,0-2.51-.87H61.72v8.71h1.53V16.53h2.23c1.13,0,1.8.51,1.8,1.44v0c0,.88-.7,1.46-1.79,1.46H64.18l3.13,4.4h1.8Z" style="fill:#27225b"/><polygon points="76.17 15.12 74.75 15.12 70.97 23.85 72.53 23.85 75.48 17.24 78.43 23.85 80.05 23.85 76.17 15.12" style="fill:#27225b"/><path d="M82.54,15.14H84l4.67,6v-6h1.5v8.71H88.85l-4.8-6.2v6.2H82.54Z" style="fill:#27225b"/><path d="M93.28,22.58l.92-1.1A4,4,0,0,0,97,22.62c1,0,1.55-.44,1.55-1.1v0c0-.63-.35-1-2-1.34-1.85-.44-2.9-1-2.9-2.6v0c0-1.5,1.25-2.53,3-2.53a4.84,4.84,0,0,1,3.16,1.1L99,17.26a4,4,0,0,0-2.37-.89c-.9,0-1.42.46-1.42,1v0c0,.67.4,1,2.07,1.37,1.84.44,2.8,1.1,2.8,2.55v0C100,23,98.75,24,96.92,24A5.39,5.39,0,0,1,93.28,22.58Z" style="fill:#27225b"/><path d="M102.83,15.14h1.63l2.65,4.12,2.65-4.12h1.63v8.71h-1.53V17.6l-2.75,4.11h0l-2.72-4.08v6.22h-1.51Z" style="fill:#27225b"/><path d="M114.49,20.15v-5H116v4.95c0,1.62.84,2.49,2.21,2.49s2.19-.82,2.19-2.43v-5H122v4.94c0,2.6-1.47,3.91-3.75,3.91S114.49,22.68,114.49,20.15Z" style="fill:#27225b"/><path d="M127.19,16.56h-2.77V15.14h7.07v1.42h-2.76v7.29h-1.54Z" style="fill:#27225b"/><rect x="134.12" y="15.14" width="5.9" height="1.42" style="fill:#27225b"/><polygon points="135.64 22.43 135.64 20.14 140.02 20.14 140.02 18.73 134.12 18.73 134.12 23.85 140.02 23.85 140.02 22.43 135.64 22.43" style="fill:#27225b"/></svg>