<svg xmlns="http://www.w3.org/2000/svg" viewBox="0 0 2082.85 1418.24"><title>Pattern-Overdrive-HP-Section</title><path d="M1150.29,978.46v89.09l120-117h-92.12A27.94,27.94,0,0,0,1150.29,978.46Z" style="fill:#2d2765"/><rect x="681.76" y="1126.85" width="232.28" height="27.17" style="fill:#2d2765"/><path d="M449.48,1186,227.15,1408.27a3.41,3.41,0,0,0,2.41,5.83h14.72a9.51,9.51,0,0,0,6.72-2.78l198.48-198.48v-.12H672.25a9.51,9.51,0,0,1,9.51,9.51v12.52a9.51,9.51,0,0,1-9.51,9.51l-222.77.27L284.1,1410.18a2.3,2.3,0,0,0,1.62,3.92h17.41a9.52,9.52,0,0,0,6.72-2.78l139.63-139.76h0l222.77-.14a9.51,9.51,0,0,1,9.51,9.51v12.52a9.51,9.51,0,0,1-9.51,9.51l-222.77.34L339.75,1413.38a.42.42,0,0,0,.3.72H362a9.51,9.51,0,0,0,6.72-2.78l80.78-81h0l222.77-.21a9.5,9.5,0,0,0,9.51-9.5v-7.24a9.51,9.51,0,0,1,9.51-9.51h190a79,79,0,0,0,55.89-23.18l95-95.14H681.76Z" style="fill:#2d2765"/><path d="M1497.06,758a40,40,0,0,0-40-40h-81.28V843.19h121.31v103.6h-68.49a103.51,103.51,0,0,0-73.32,30.44l-205,205.63V1067.55h-86.7a31.43,31.43,0,0,0-31.42,31.43v86.69h115.31l-231.8,232.57H980.9a128.65,128.65,0,0,0,91.78-38.51l425-432.94h113.82V843.19H1497.06Z" style="fill:#2d2765"/><path d="M1842.74,1196.17l-219.48,219.48H1641a31.43,31.43,0,0,0,22.22-9.2l179.55-179.56V1262l-153.67,153.67h20.81a24,24,0,0,0,16.94-7l115.92-115.92v35.09l-87.85,87.85h17.19a32.67,32.67,0,0,0,23.11-9.57l47.55-47.55v-.12h240.11V1202.82a78,78,0,0,0-78-78H1869.67a26.93,26.93,0,0,0-26.93,26.93Z" style="fill:#2d2765"/><rect x="1902.2" y="775.82" width="59.68" height="59.68" style="fill:#2d2765"/><path d="M1902.2,955h22.34a37.34,37.34,0,0,0,37.34-37.34V895.34H1902.2Z" style="fill:#2d2765"/><path d="M1981.17,716.11h-19.29v59.68h59.68V756.5A40.39,40.39,0,0,0,1981.17,716.11Z" style="fill:#2d2765"/><rect x="1961.88" y="835.63" width="59.68" height="59.68" style="fill:#2d2765"/><path d="M2021.56,835.5h22a39.24,39.24,0,0,0,39.25-39.24V775.82h-61.29Z" style="fill:#2d2765"/><path d="M2021.56,955h61.29V934.25a38.91,38.91,0,0,0-38.91-38.91h-22.38Z" style="fill:#2d2765"/><polygon points="1842.74 1415.65 1842.74 1393.62 1820.71 1415.65 1842.74 1415.65" style="fill:#2d2765"/><path d="M1606,1266.2l87.32-87.31H1679a39.7,39.7,0,0,0-28.1,11.64l-45,45Z" style="fill:#2d2765"/><polygon points="1605.98 1200.39 1627.48 1178.89 1605.98 1178.89 1605.98 1200.39" style="fill:#2d2765"/><path d="M1152.5,535.44h0a10.86,10.86,0,0,0-18.54-7.68L962.44,699.27a10.87,10.87,0,0,0,7.69,18.55h0a10.85,10.85,0,0,0,7.68-3.18l171.51-171.51A10.86,10.86,0,0,0,1152.5,535.44Z" style="fill:#2d2765"/><polygon points="233.58 2.86 204.48 31.96 204.48 58.85 260.47 2.86 233.58 2.86" style="fill:#2d2765"/><path d="M1152.5,574.51h0L1017.6,709.93a4.62,4.62,0,0,0,3.27,7.89h17.66a4.62,4.62,0,0,0,3.27-1.35l102.81-102.82a4.62,4.62,0,0,1,7.89,3.27v22a4.61,4.61,0,0,1-1.35,3.27l-67.73,67.73a4.62,4.62,0,0,0,3.26,7.89h17.67a4.58,4.58,0,0,0,3.26-1.35l37-37a4.62,4.62,0,0,1,7.89,3.26v22a4.61,4.61,0,0,1-1.35,3.27l-9.8,9.8h11.15l219.55.15a4.62,4.62,0,0,0,4.63-4.62V632.74a58.64,58.64,0,0,0-58.6-58.64Z" style="fill:#2d2765"/><path d="M1152.23,229.76h-47.7a68.28,68.28,0,0,0-68.29,68.29v47.7h116Z" style="fill:#2d2765"/><path d="M1322.5,459.08V402.42h-56.66V345.75H1152.5v65.4a47.93,47.93,0,0,0,47.93,47.93H1322.5Z" style="fill:#2d2765"/><path d="M1322.5,289.09H1302a36.17,36.17,0,0,0-36.17,36.17v20.49h56.66Z" style="fill:#2d2765"/><rect x="1322.5" y="345.75" width="54.12" height="56.67" style="fill:#2d2765"/><path d="M928.17.48A14.13,14.13,0,0,0,914,14.61v60h452.7a14.13,14.13,0,0,1,14.13,14.13v18.47A14.13,14.13,0,0,0,1395,121.36h338V14.61A14.13,14.13,0,0,0,1718.85.48Z" style="fill:#2d2765"/><path d="M1376.62,345.75H1612.1v.16L1733,225h-92.4a28.48,28.48,0,0,0-28.48,28.48V265.8A23.17,23.17,0,0,1,1588.93,289H1376.62V272.22a39.8,39.8,0,0,0-39.8-39.8H1322.5v56.67h54.12Z" style="fill:#2d2765"/><path d="M1836.65.48V121.36l80.65-80.65c14.85-14.85,4.33-40.23-16.66-40.23Z" style="fill:#2d2765"/><path d="M.41.48V121.36L91.35,30.42C102.4,19.37,94.57.48,79,.48Z" style="fill:#2d2765"/><path d="M1836.65,121.36H1733V225h39a64.71,64.71,0,0,0,64.72-64.72Z" style="fill:#2d2765"/><path d="M1614,525.37V413.45a11.14,11.14,0,0,0-11.14-11.14H1376.73V562.85A11.14,11.14,0,0,0,1387.87,574h216.21a11.13,11.13,0,0,1,11.13,11.14h0a11.14,11.14,0,0,0,11.14,11.14h212.07a11.14,11.14,0,0,0,11.14-11.14v-7.61a11.13,11.13,0,0,1,11.14-11.13h211a11.14,11.14,0,0,0,11.14-11.14v-7.6a11.14,11.14,0,0,0-11.14-11.14H1625.15A11.14,11.14,0,0,1,1614,525.37Z" style="fill:#2d2765"/><path d="M1849.56,507.53h233.29V477.65h-211a22.3,22.3,0,0,0-22.3,22.31Z" style="fill:#2d2765"/><rect x="1849.56" y="596.27" width="233.29" height="29.88" style="fill:#2d2765"/><path d="M1842.51,656.19H1612.2v61.63l-.66,125.37,115.14-125.37h114.6l-700.4,700.4h78.8a97.5,97.5,0,0,0,68.94-28.55l88.71-88.71v.52H1491.5V1391a24.7,24.7,0,0,0,24.7,24.7H1606v-10.76a17,17,0,0,1,5-12l214-214h-19.48a27.16,27.16,0,0,0-19.2,7.95L1606,1367.11V1332l153.13-153.13h-20.5a24.65,24.65,0,0,0-17.45,7.23L1606,1301.29v-.12H1491.81V1187h-.52l99.71-99.7a72,72,0,0,1,50.88-21.08h387.83a53.14,53.14,0,0,0,53.14-53.14V1009H1842.74V994.54A39.51,39.51,0,0,0,1803.23,955h-80l119.24-119.24v21.61a37.92,37.92,0,0,0,37.92,37.92h21.77V835.63h-59.53l.07-.08V775.79h59.46V716.11h-59.46v-30h240.11V656.19H1842.51Z" style="fill:#2d2765"/><path d="M2082.85,0,1615.21,479.19h92.63a58.25,58.25,0,0,0,41.61-17.49l59.26-60.5a126.26,126.26,0,0,1,90.19-37.9h133.2a50.75,50.75,0,0,0,50.75-50.74V242.42h-59.78c-21.9,0-33-26.37-17.66-42l57-58.23a71.38,71.38,0,0,0,20.4-50Z" style="fill:#2d2765"/><path d="M449.48,878.86v-53.6H223.94a11.22,11.22,0,0,0-11.22,11.22v53.61h0a11.24,11.24,0,0,1-3.29,7.94L3.29,1104.17A11.22,11.22,0,0,0,0,1112.11v79.64a11.23,11.23,0,0,0,19.17,7.94l193.55-193.54v2.32H319.87a11.23,11.23,0,0,0,11.23-11.23V901.32a11.22,11.22,0,0,1,11.22-11.23h95.93A11.23,11.23,0,0,0,449.48,878.86Z" style="fill:#2d2765"/><path d="M217.75,531.84h-.52L92.89,656.19H38.34L217.75,476.78V442.84a27.57,27.57,0,0,0-27.57-27.57H163.31v61.51h-.24L0,639.85V750.94l26.08-26.08A37.19,37.19,0,0,1,52.37,714H71.62a43.84,43.84,0,0,0,31-12.84L204.93,598.82a48.55,48.55,0,0,1,34.32-14.22h47.93a38.4,38.4,0,0,0,38.4-38.4V476.78H217.75Z" style="fill:#2d2765"/><path d="M54.44,476.78H54.2L0,531v54.68l94.28-94.28a49.84,49.84,0,0,0,14.59-35.24V415.27H54.44Z" style="fill:#2d2765"/><path d="M108.87,360.84v54.43h54.44v-41a13.46,13.46,0,0,0-13.46-13.46Z" style="fill:#2d2765"/><rect x="54.44" y="305.77" width="54.44" height="54.44" style="fill:#2d2765"/><polygon points="161.28 1414.1 212.72 1414.1 212.72 1390.75 449.48 1153.99 449.48 1127.1 212.72 1362.66 161.28 1414.1" style="fill:#2d2765"/><path d="M325.58,360.84V476.78H430.63a10.83,10.83,0,0,0,10.83-10.84V360.84Z" style="fill:#2d2765"/><path d="M605.55,250.7H646a35.78,35.78,0,0,0,35.78-35.78H441.46v-.18l-36.18,36h36.18V360.84h116v-62A48.11,48.11,0,0,1,605.55,250.7Z" style="fill:#2d2765"/><path d="M971.15,861.39c-31.62,0-57.24,26.39-57.18,58l0,20.69a10.64,10.64,0,0,1-10.64,10.66H460.11a10.63,10.63,0,0,0-10.63,10.63v36.46a10.64,10.64,0,0,1-10.64,10.63H341.73a10.63,10.63,0,0,0-10.63,10.64v107.74l-115.27,116.2a10.64,10.64,0,0,0-3.11,7.52v14.2a3.43,3.43,0,0,0,5.85,2.43L355.8,1130a10.61,10.61,0,0,1,7.52-3.12h1.87a10.64,10.64,0,0,1,7.53,18.16L215.83,1301.89a10.67,10.67,0,0,0-3.11,7.53v7.88a6,6,0,0,0,10.32,4.27L414.65,1130a10.61,10.61,0,0,1,7.52-3.12H680.63a1.13,1.13,0,0,0,1.13-1.13V1106a10.64,10.64,0,0,1,10.64-10.64h211A10.63,10.63,0,0,0,914,1084.68v-5.89a10.64,10.64,0,0,0-10.64-10.64H460.11a10.63,10.63,0,0,1-10.63-10.64v-37.43a10.63,10.63,0,0,1,10.63-10.63H680.63a1.14,1.14,0,0,0,1.13-1.13V988.55a10.64,10.64,0,0,1,10.64-10.64h211A10.64,10.64,0,0,1,914,988.55v10.26a10.64,10.64,0,0,1-10.64,10.64H682.89a1.13,1.13,0,0,0-1.13,1.13v24.9a1.13,1.13,0,0,0,1.13,1.13H903.4A10.64,10.64,0,0,1,914,1047.25v9.66a10.64,10.64,0,0,0,10.64,10.64H1002a30.18,30.18,0,0,0,30.18-30.18V970.65a54.75,54.75,0,0,1,54.75-54.76h148.92v-54.5Z" style="fill:#2d2765"/><path d="M1373.48,841.08l-31.75-31.77h0L1310,777.6a9.47,9.47,0,0,0-6.72-2.79H925.25a9.51,9.51,0,0,1-9.51-9.5l0-50.48a9.48,9.48,0,0,1,2.79-6.73l230.91-230.89A10.13,10.13,0,0,0,1152,473a10.67,10.67,0,0,0-10.14-13.92h-5L915.72,680.16v-.59h-234v83.31a9.5,9.5,0,0,1-9.51,9.5H449.48v52.88h696.84l34.58,36.13V809.31h160.8V862.1h-53V916h-52.84l34.5,34.51h51.4v-56h54.52V847.8A9.51,9.51,0,0,0,1373.48,841.08Z" style="fill:#2d2765"/><path d="M212.72,709V684.72a5,5,0,0,1,5-5H451.47v-.19H681.76V650.1a5,5,0,0,1,5-5h229v-.07l177.54-177.52a5,5,0,0,0-3.51-8.47h-16.7a5,5,0,0,0-3.51,1.46L915.72,614.34v0H454.44a5,5,0,0,0-5,5v36.26a5,5,0,0,1-5,5H212.72v.23L1.45,872.05A5,5,0,0,0,0,875.55v97.37a5,5,0,0,0,8.47,3.51L212.72,772.18v.2H449.48V718.93a5,5,0,0,0-5-5H217.68A5,5,0,0,1,212.72,709Z" style="fill:#2d2765"/><path d="M1019,143.84l.06-.06h-99.9a5.1,5.1,0,0,1-5.1-5.11v-64H681.76l-240.51.24v0L266.93,249.21a5.14,5.14,0,0,1-3.61,1.49H239.67a5.1,5.1,0,0,1-3.61-8.71L439.67,38.7a5.12,5.12,0,0,1,3.6-1.49l233.39-.34a5.1,5.1,0,0,0,5.1-5.1V9.86a5.1,5.1,0,0,0-5.11-5.1L441.24,5.1V5L213,233a5.1,5.1,0,0,1-8.71-3.61V204.11a5.11,5.11,0,0,1,1.5-3.61L394.89,11.58a5.11,5.11,0,0,0-3.61-8.72H375.54a5.09,5.09,0,0,0-3.61,1.5L213,163.11a5.1,5.1,0,0,1-8.71-3.61v-27a5.11,5.11,0,0,1,1.5-3.61L323.31,11.58a5.11,5.11,0,0,0-3.6-8.72h-14.1a5.09,5.09,0,0,0-3.6,1.5l-96.22,96a5.12,5.12,0,0,0-1.5,3.62v12.25a5.1,5.1,0,0,1-5.1,5.1H0V300.67a5.1,5.1,0,0,0,5.1,5.1H49.34a5.11,5.11,0,0,0,5.1-5.1v-50h49.33a5.1,5.1,0,0,1,5.1,5.1v44.87a5.11,5.11,0,0,0,5.11,5.1h44.23a5.1,5.1,0,0,0,5.1-5.1V255.8a5.1,5.1,0,0,1,5.1-5.1h43.71a5.1,5.1,0,0,1,5.1,5.1v44.87a5.1,5.1,0,0,1-5.1,5.1H168.41a5.1,5.1,0,0,0-5.1,5.1V355.1a5.1,5.1,0,0,0,5.1,5.11H325.58V255.8a5.1,5.1,0,0,0-5.11-5.1h-9.24a5.1,5.1,0,0,1-3.61-8.71L441.25,108.37v.27l235.4-.24a5.1,5.1,0,0,1,5.11,5.1v26.2a5.1,5.1,0,0,0,5.1,5.1H858.2c14.12,0,21.21,17,11.26,27.07L683.26,359.33a5.08,5.08,0,0,1-3.62,1.51H562.55a5.1,5.1,0,0,0-5.1,5.1V471.67a5.1,5.1,0,0,1-5.1,5.11H446.56a5.1,5.1,0,0,0-5.1,5.1V543.4a5.1,5.1,0,0,0,5.1,5.1h235.2v-30a5.1,5.1,0,0,1,5.1-5.1H915.68l.06-.07v.1l52.86-52.85a5.09,5.09,0,0,1,3.61-1.5h20.65a5.1,5.1,0,0,1,3.61,8.71l-80.75,80.73v0h-234v25.67a5.1,5.1,0,0,0,5.1,5.1H915.72v0l120.19-120.17h.33V350.85a5.1,5.1,0,0,0-5.1-5.1H928.52a5.1,5.1,0,0,0-3.66,1.55l-100,103.13a5.1,5.1,0,0,0,3.67,8.65h98.5a5.1,5.1,0,0,1,3.6,8.71l-11.77,11.78a5.14,5.14,0,0,1-3.61,1.49H694.08a5.1,5.1,0,0,1-3.61-8.71L957.59,205.23a87.09,87.09,0,0,1,61.6-25.51H1350.1a30.78,30.78,0,0,0,30.77-30.78h0a5.1,5.1,0,0,0-5.1-5.1Z" style="fill:#2d2765"/><path d="M441.37,144.8v0l-106,105.88h35.13l70.89-70.76v-.22H646.85a34.92,34.92,0,0,0,34.91-34.92H441.37Z" style="fill:#2d2765"/><path d="M212.72,1214.2l88.34-88.34H286.77a30.4,30.4,0,0,0-21.5,8.9l-52.55,52.55v-32l29.49-29.49H225.72a25.06,25.06,0,0,0-17.75,7.36L23.34,1318.07A79.73,79.73,0,0,0,0,1374.43v39.67H38.72l174-174Z" style="fill:#2d2765"/><path d="M0,381.68v33.59H54.44V360.84H20.84A20.84,20.84,0,0,0,0,381.68Z" style="fill:#2d2765"/></svg>